<?xml version="1.0" encoding="utf-8" standalone="no"?>
<svg width="13.3px" height="11.095px" viewBox="0.95 0.114 13.3 11.095" version="1.1" xmlns="http://www.w3.org/2000/svg" xmlns:xlink="http://www.w3.org/1999/xlink" x="0px" y="0px" enable-background="new 0.95 0.114 13.3 11.095" xml:space="preserve">
	<g transform="translate(-238.000000, -17.000000)">
		<path fill="#242633" d="M252.25,26.545
			c0-0.304-0.251-0.555-0.555-0.555h-12.191c-0.303,0-0.554,0.251-0.554,0.555v1.109c0,0.303,0.251,0.555,0.554,0.555h12.191
			c0.304,0,0.555-0.252,0.555-0.555V26.545z M252.25,22.107c0-0.303-0.251-0.555-0.555-0.555h-12.191
			c-0.303,0-0.554,0.251-0.554,0.555v1.109c0,0.303,0.251,0.555,0.554,0.555h12.191c0.304,0,0.555-0.252,0.555-0.555V22.107z
			 M252.25,17.669c0-0.303-0.251-0.555-0.555-0.555h-12.191c-0.303,0-0.554,0.251-0.554,0.555v1.109
			c0,0.304,0.251,0.555,0.554,0.555h12.191c0.304,0,0.555-0.251,0.555-0.555V17.669z"/>
	</g>
</svg>
