<?xml version="1.0" encoding="UTF-8" standalone="no"?>
<svg width="14.417px" height="14.417px" viewBox="0.744 0.043 14.417 14.417" version="1.1" xmlns="http://www.w3.org/2000/svg" xmlns:xlink="http://www.w3.org/1999/xlink" x="0px" y="0px" enable-background="new 0.744 0.043 14.417 14.417" xml:space="preserve">
	<g transform="translate(-786.000000, -18.000000)">
		<g transform="translate(787.244253, 18.543460)">
			<path fill="#000000" d="M5.833,12.167c-3.492,0-6.333-2.841-6.333-6.333S2.341-0.5,5.833-0.5c3.493,0,6.333,2.841,6.333,6.333
				S9.326,12.167,5.833,12.167z M5.833,0.5C2.892,0.5,0.5,2.893,0.5,5.833c0,2.94,2.393,5.333,5.333,5.333s5.333-2.393,5.333-5.333
				C11.167,2.893,8.774,0.5,5.833,0.5z"/>
			<path fill="#000000" d="M13.417,13.917c-0.128,0-0.256-0.049-0.354-0.146l-3.5-3.5c-0.195-0.195-0.195-0.512,0-0.707
				s0.512-0.195,0.707,0l3.5,3.5c0.195,0.195,0.195,0.512,0,0.707C13.673,13.868,13.545,13.917,13.417,13.917z"/>
		</g>
	</g>
</svg>
