<?xml version="1.0" encoding="UTF-8" standalone="no"?>
<svg width="16.253px" height="16.361px" viewBox="0 0.639 16.253 16.361" version="1.1" xmlns="http://www.w3.org/2000/svg" xmlns:xlink="http://www.w3.org/1999/xlink" x="0px" y="0px" enable-background="new 0 0.639 16.253 16.361" xml:space="preserve">
	<g transform="translate(-582.000000, -204.000000)">
		<path fill="#000000" d="M594.726,216.855c2.352,0.872,3.527,1.611,3.527,2.218V221h-8.126
			H582v-1.927c0-0.606,1.176-1.346,3.527-2.218c1.083-0.412,1.821-0.83,2.213-1.255c0.392-0.424,0.588-1,0.588-1.728
			c0-0.266-0.127-0.562-0.38-0.89c-0.253-0.327-0.438-0.77-0.553-1.327c-0.023-0.146-0.075-0.254-0.156-0.327
			c-0.081-0.073-0.161-0.122-0.242-0.146c-0.081-0.024-0.162-0.127-0.242-0.309s-0.133-0.442-0.156-0.782
			c0-0.194,0.029-0.352,0.086-0.473s0.109-0.194,0.156-0.218l0.069-0.073c-0.092-0.606-0.161-1.139-0.207-1.6
			c-0.046-0.655,0.19-1.333,0.708-2.036c0.519-0.703,1.424-1.054,2.715-1.054c1.292,0,2.202,0.351,2.732,1.054
			s0.761,1.381,0.691,2.036l-0.208,1.6c0.208,0.097,0.312,0.352,0.312,0.764c-0.022,0.339-0.075,0.6-0.155,0.782
			s-0.162,0.285-0.242,0.309c-0.08,0.024-0.161,0.073-0.242,0.146c-0.08,0.073-0.133,0.182-0.155,0.327
			c-0.093,0.582-0.271,1.03-0.536,1.345c-0.266,0.315-0.397,0.606-0.397,0.872c0,0.728,0.202,1.304,0.604,1.728
			C592.934,216.025,593.665,216.443,594.726,216.855L594.726,216.855z"/>
	</g>
</svg>
