<?xml version="1.0" encoding="utf-8" standalone="no"?>
<svg width="13px" height="7px" viewBox="0 0 13 7" version="1.1" xmlns="http://www.w3.org/2000/svg" xmlns:xlink="http://www.w3.org/1999/xlink" x="0px" y="0px" enable-background="new 0 0 13 7" xml:space="preserve">
	<rect fill="#acacac" width="1" height="1"/>
	<rect y="2" fill="#acacac" width="1" height="1"/>
	<rect y="4" fill="#acacac" width="1" height="1"/>
	<rect y="6" fill="#acacac" width="1" height="1"/>
	<rect x="2" fill="#acacac" width="1" height="1"/>
	<rect x="2" y="2" fill="#acacac" width="1" height="1"/>
	<rect x="2" y="4" fill="#acacac" width="1" height="1"/>
	<rect x="2" y="6" fill="#acacac" width="1" height="1"/>
	<rect x="4" fill="#acacac" width="1" height="1"/>
	<rect x="4" y="2" fill="#acacac" width="1" height="1"/>
	<rect x="4" y="4" fill="#acacac" width="1" height="1"/>
	<rect x="4" y="6" fill="#acacac" width="1" height="1"/>
	<rect x="6" fill="#acacac" width="1" height="1"/>
	<rect x="6" y="2" fill="#acacac" width="1" height="1"/>
	<rect x="6" y="4" fill="#acacac" width="1" height="1"/>
	<rect x="6" y="6" fill="#acacac" width="1" height="1"/>
	<rect x="8" fill="#acacac" width="1" height="1"/>
	<rect x="8" y="2" fill="#acacac" width="1" height="1"/>
	<rect x="8" y="4" fill="#acacac" width="1" height="1"/>
	<rect x="8" y="6" fill="#acacac" width="1" height="1"/>
	<rect x="10" fill="#acacac" width="1" height="1"/>
	<rect x="10" y="2" fill="#acacac" width="1" height="1"/>
	<rect x="10" y="4" fill="#acacac" width="1" height="1"/>
	<rect x="10" y="6" fill="#acacac" width="1" height="1"/>
	<rect x="12" fill="#acacac" width="1" height="1"/>
	<rect x="12" y="2" fill="#acacac" width="1" height="1"/>
	<rect x="12" y="4" fill="#acacac" width="1" height="1"/>
	<rect x="12" y="6" fill="#acacac" width="1" height="1"/>
</svg>
