<svg xmlns="http://www.w3.org/2000/svg" style="display: none;">

    <symbol id="br_icon_chevron_down" viewBox="0 0 512 512">
      <path d="m254 427c-8 0-17-4-22-10l-226-283c-10-12-8-30 5-40 12-10 30-8 40 4l203 255 206-256c9-13 27-15 39-5 13 10 15 28 5 40l-228 285c-5 6-13 10-22 10z"/>
    </symbol>

    <symbol id="br_icon_hamburger" viewBox="0 0 512 512">
      <path d="m524 411c0-12-10-22-22-22l-480 0c-12 0-22 10-22 22l0 44c0 11 10 21 22 21l480 0c12 0 22-10 22-21z m0-175c0-12-10-22-22-22l-480 0c-12 0-22 10-22 22l0 44c0 12 10 22 22 22l480 0c12 0 22-10 22-22z m0-175c0-12-10-22-22-22l-480 0c-12 0-22 10-22 22l0 44c0 12 10 22 22 22l480 0c12 0 22-10 22-22z"/>
    </symbol>

    <symbol id="br_icon_hamburger_vert" viewBox="0 0 512 512">
      <path d="m411 0c-12 0-22 10-22 22l0 480c0 12 10 22 22 22l43 0c12 0 22-10 22-22l0-480c0-12-10-22-22-22l-43 0z m-175 0c-12 0-22 10-22 22l0 480c0 12 10 22 22 22l44 0c12 0 22-10 22-22l0-480c0-12-10-22-22-22l-44 0z m-175 0c-12 0-22 10-22 22l0 480c0 12 10 22 22 22l44 0c12 0 22-10 22-22l0-480c0-12-10-22-22-22l-44 0z"/>
    </symbol>

    <symbol id="br_icon_house" viewBox="0 0 512 512">
      <path d="m266 21l-266 228 74 0 0 242 130 0 0-143 124 0 0 143 131 0 0-242 74 0z"/>
    </symbol>

    <symbol id="br_icon_lock" viewBox="0 0 512 512">
      <path d="m425 250l-18 0 0-93-1 0c0-1 1-3 1-4 0-85-69-153-153-153-84 0-153 68-153 153 0 1 0 3 0 4l0 0 0 93-18 0c-16 0-28 12-28 28l0 222c0 15 12 28 28 28l342 0c15 0 28-13 28-28l0-222c0-16-13-28-28-28z m-92-93l0 93-158 0 0-93 0 0c0-1 0-3 0-4 0-44 35-79 79-79 43 0 79 35 79 79 0 1-1 3-1 4z"/>
    </symbol>

    <symbol id="br_icon_minus" viewBox="0 0 512 512">
      <path d="m0 219l0 74 512 0 0-74z"/>
    </symbol>

    <symbol id="br_icon_plus" viewBox="0 0 512 512">
      <path d="m219 219l-219 0 0 74 219 0 0 219 74 0 0-219 219 0 0-74-219 0 0-219-74 0z"/>
    </symbol>

    <symbol id="br_icon_search" viewBox="0 0 512 512">
      <path d="m232 463c-128 0-232-104-232-231 0-128 104-232 232-232 127 0 231 104 231 232 0 127-104 231-231 231z m0-426c-108 0-195 87-195 195 0 107 87 195 195 195 107 0 195-88 195-195 0-108-88-195-195-195z m277 490c-5 0-9-2-13-5l-128-128c-7-7-7-19 0-26 7-7 19-7 26 0l128 128c7 7 7 19 0 26-4 3-8 5-13 5z"/>
    </symbol>

    <symbol id="br_icon_caret_right" viewBox="0 0 512 512">
      <path d="m64 0l384 228-384 284z"/>
    </symbol>

    <symbol id="br_icon_user" viewBox="0 0 512 512">
      <path d="m407 391c75 28 113 51 113 71l0 62-520 0 0-62c0-20 38-43 113-71 35-13 58-27 71-40 12-14 18-32 18-56 0-8-4-18-12-28-8-10-14-25-17-42-1-5-3-9-5-11-3-2-6-4-8-5-3 0-5-4-8-10-2-5-4-14-5-25 0-6 1-11 3-15 2-4 3-6 5-7l2-2c-3-19-5-36-7-51-1-21 7-43 23-65 17-23 46-34 87-34 41 0 70 11 87 34 17 22 25 44 23 65l-7 51c7 3 10 11 10 24-1 11-3 20-5 25-3 6-5 10-8 10-2 1-5 3-8 5-2 2-4 6-5 11-2 18-8 32-17 43-8 10-12 19-12 27 0 24 6 42 19 56 13 13 36 27 70 40z"/>
    </symbol>

</svg>
