<?xml version="1.0" encoding="UTF-8" standalone="no"?>
<svg width="13px" height="14px" viewBox="0 0 13 14" version="1.1" xmlns="http://www.w3.org/2000/svg" xmlns:xlink="http://www.w3.org/1999/xlink">
  <g transform="translate(-742.000000, -371.000000)" fill="#3c763d">
    <path d="M742,384.416667 C742,384.572223 742.056388,384.708333 742.169167,384.825 C742.281945,384.941667 742.419999,385 742.583333,385 L754.25,385 C754.413334,385 754.551388,384.941667 754.664167,384.825 C754.776945,384.708333 754.833333,384.572223 754.833333,384.416667 L754.833333,375.666667 L742,375.666667 L742,384.416667 Z M742,374.5 L754.833333,374.5 L754.833333,372.75 C754.833333,372.586666 754.776945,372.448612 754.664167,372.335833 C754.551388,372.223055 754.413334,372.166667 754.25,372.166667 L752.5,372.166667 L752.5,371 L751.333333,371 L751.333333,372.166667 L745.5,372.166667 L745.5,371 L744.333333,371 L744.333333,372.166667 L742.583333,372.166667 C742.419999,372.166667 742.281945,372.223055 742.169167,372.335833 C742.056388,372.448612 742,372.586666 742,372.75 L742,374.5 Z M743.166667,383.833333 L743.166667,382.666667 L744.333333,382.666667 L744.333333,383.833333 L743.166667,383.833333 Z M743.166667,381.5 L743.166667,380.333333 L744.333333,380.333333 L744.333333,381.5 L743.166667,381.5 Z M743.166667,379.166667 L743.166667,378 L744.333333,378 L744.333333,379.166667 L743.166667,379.166667 Z M745.5,383.833333 L745.5,382.666667 L746.666667,382.666667 L746.666667,383.833333 L745.5,383.833333 Z M745.5,381.5 L745.5,380.333333 L746.666667,380.333333 L746.666667,381.5 L745.5,381.5 Z M745.5,379.166667 L745.5,378 L746.666667,378 L746.666667,379.166667 L745.5,379.166667 Z M747.833333,383.833333 L747.833333,382.666667 L749,382.666667 L749,383.833333 L747.833333,383.833333 Z M747.833333,381.5 L747.833333,380.333333 L749,380.333333 L749,381.5 L747.833333,381.5 Z M747.833333,379.166667 L747.833333,378 L749,378 L749,379.166667 L747.833333,379.166667 Z M750.166667,383.833333 L750.166667,382.666667 L751.333333,382.666667 L751.333333,383.833333 L750.166667,383.833333 Z M750.166667,381.5 L750.166667,380.333333 L751.333333,380.333333 L751.333333,381.5 L750.166667,381.5 Z M750.166667,379.166667 L750.166667,378 L751.333333,378 L751.333333,379.166667 L750.166667,379.166667 Z M752.5,383.833333 L752.5,382.666667 L753.666667,382.666667 L753.666667,383.833333 L752.5,383.833333 Z M752.5,381.5 L752.5,380.333333 L753.666667,380.333333 L753.666667,381.5 L752.5,381.5 Z M752.5,379.166667 L752.5,378 L753.666667,378 L753.666667,379.166667 L752.5,379.166667 Z"></path>
  </g>
</svg>