<?xml version="1.0" encoding="UTF-8" standalone="no"?>
<svg width="10.883px" height="14.427px" viewBox="0.017 0.639 10.883 14.427" version="1.1" xmlns="http://www.w3.org/2000/svg" xmlns:xlink="http://www.w3.org/1999/xlink" x="0px" y="0px" enable-background="new 0.017 0.639 10.883 14.427" xml:space="preserve">
	<g transform="translate(-585.000000, -271.000000)">
		<g transform="translate(585.000000, 271.638448)">
			<path fill="#3c763d" d="M10.141,6.834H9.635V4.303H9.629
				C9.631,4.26,9.635,4.219,9.635,4.176C9.635,1.87,7.766,0,5.458,0C3.153,0,1.283,1.87,1.283,4.176
				c0,0.043,0.004,0.084,0.005,0.127H1.283v2.531H0.776c-0.419,0-0.759,0.339-0.759,0.759v6.075c0,0.419,0.34,0.759,0.759,0.759
				h9.365c0.42,0,0.76-0.34,0.76-0.759V7.593C10.9,7.174,10.561,6.834,10.141,6.834L10.141,6.834z M7.61,4.303v2.531H3.307V4.303
				h0.007C3.312,4.26,3.307,4.219,3.307,4.176c0-1.188,0.963-2.151,2.151-2.151c1.188,0,2.152,0.963,2.152,2.151
				c0,0.043-0.004,0.084-0.006,0.127H7.61L7.61,4.303z"/>
		</g>
	</g>
</svg>
